<svg width="512" height="512" viewBox="0 0 256 128" fill="none" xmlns="http://www.w3.org/2000/svg">
  <defs>
    <linearGradient id="sparkle2" x1="32" y1="6" x2="32" y2="22" gradientUnits="userSpaceOnUse">
      <stop offset="0%" stop-color="#fde047"/>
      <stop offset="100%" stop-color="#f59e0b"/>
    </linearGradient>
    <linearGradient id="bookLeft2" x1="10" y1="22" x2="28" y2="58" gradientUnits="userSpaceOnUse">
      <stop offset="0%" stop-color="#818cf8"/>
      <stop offset="100%" stop-color="#6366f1"/>
    </linearGradient>
    <linearGradient id="bookRight2" x1="36" y1="22" x2="54" y2="58" gradientUnits="userSpaceOnUse">
      <stop offset="0%" stop-color="#a78bfa"/>
      <stop offset="100%" stop-color="#8b5cf6"/>
    </linearGradient>
    <linearGradient id="card2" x1="18" y1="18" x2="46" y2="54" gradientUnits="userSpaceOnUse">
      <stop offset="0%" stop-color="#c084fc"/>
      <stop offset="100%" stop-color="#a855f7"/>
    </linearGradient>
    <linearGradient id="textGrad" x1="76" y1="36" x2="240" y2="92" gradientUnits="userSpaceOnUse">
      <stop offset="0%" stop-color="#6366f1"/>
      <stop offset="50%" stop-color="#a855f7"/>
      <stop offset="100%" stop-color="#ec4899"/>
    </linearGradient>
  </defs>
  <g transform="translate(4, 24) scale(1.2)">
    <path d="M32 6L36 20L50 20L39 29L44 43L32 33L20 43L25 29L14 20L28 20L32 6Z" fill="url(#sparkle2)"/>
    <rect x="10" y="22" width="18" height="36" rx="3" fill="url(#bookLeft2)"/>
    <rect x="36" y="22" width="18" height="36" rx="3" fill="url(#bookRight2)"/>
    <rect x="18" y="18" width="28" height="38" rx="4" fill="url(#card2)"/>
    <path d="M24 28h16M24 35h16M24 42h12M24 49h9" stroke="#fff" stroke-width="2" stroke-linecap="round" opacity="0.9"/>
  </g>
  <text x="82" y="78" font-family="-apple-system, BlinkMacSystemFont, 'Segoe UI', sans-serif" font-size="50" font-weight="800" fill="url(#textGrad)" letter-spacing="-1.5">WordBase</text>
</svg>
